<svg xmlns="http://www.w3.org/2000/svg" height="24" viewBox="0 0 24 24" width="24"><path d="m0 0h24v24h-24z" fill="none"></path><path d="m4 18h11c.55 0 1-.45 1-1 0-.55-.45-1-1-1h-11c-.55 0-1 .45-1 1 0 .55.45 1 1 1zm0-5h8c.55 0 1-.45 1-1 0-.55-.45-1-1-1h-8c-.55 0-1 .45-1 1 0 .55.45 1 1 1zm-1-6c0 .55.45 1 1 1h11c.55 0 1-.45 1-1 0-.55-.45-1-1-1h-11c-.55 0-1 .45-1 1zm17.3 7.88-2.88-2.88 2.88-2.88c.39-.39.39-1.02 0-1.41-.39-.39-1.02-.39-1.41 0l-3.59 3.59c-.39.39-.39 1.02 0 1.41l3.59 3.59c.39.39 1.02.39 1.41 0 .38-.39.39-1.03 0-1.42z"></path><path d="m0 0h24v24h-24z" fill="none"></path></svg>